<svg width="39" height="39" viewBox="0 0 39 39" fill="none" xmlns="http://www.w3.org/2000/svg">
<path d="M11.8506 30.6074L10.2753 21.7983C10.2013 21.3843 9.80563 21.1083 9.39141 21.1826C8.97726 21.2567 8.7016 21.6524 8.77571 22.0665L10.351 30.8756C10.417 31.2443 10.738 31.5033 11.0999 31.5033C11.1444 31.5033 11.1896 31.4994 11.2349 31.4913C11.6491 31.4172 11.9247 31.0215 11.8506 30.6074Z" fill="currentColor"/>
<path d="M22.5623 24.1483C22.1416 24.1483 21.8005 24.4893 21.8005 24.91V30.7416C21.8005 31.1622 22.1416 31.5033 22.5623 31.5033C22.9829 31.5033 23.324 31.1622 23.324 30.7416V24.91C23.324 24.4894 22.9829 24.1483 22.5623 24.1483Z" fill="currentColor"/>
<path d="M23.1006 21.3939C22.959 21.2521 22.7625 21.1707 22.5621 21.1707C22.3617 21.1707 22.1653 21.2521 22.0236 21.3939C21.8819 21.5357 21.8004 21.7321 21.8004 21.9324C21.8004 22.1328 21.8818 22.3293 22.0236 22.4709C22.1653 22.6126 22.3617 22.6942 22.5621 22.6942C22.7625 22.6942 22.959 22.6126 23.1006 22.4709C23.2423 22.3293 23.3239 22.1328 23.3239 21.9324C23.3239 21.7321 23.2423 21.5356 23.1006 21.3939Z" fill="currentColor"/>
<path d="M16.4377 21.1707C16.0171 21.1707 15.676 21.5118 15.676 21.9324V30.7415C15.676 31.1621 16.0171 31.5032 16.4377 31.5032C16.8584 31.5032 17.1995 31.1621 17.1995 30.7415V21.9324C17.1995 21.5117 16.8584 21.1707 16.4377 21.1707Z" fill="currentColor"/>
<path d="M29.6086 21.1827C29.1934 21.1082 28.7986 21.3844 28.7247 21.7984L27.1494 30.6075C27.0753 31.0217 27.3509 31.4174 27.7651 31.4914C27.8105 31.4994 27.8556 31.5034 27.9 31.5034C28.262 31.5034 28.5831 31.2444 28.649 30.8757L30.2243 22.0666C30.2984 21.6524 30.0227 21.2567 29.6086 21.1827Z" fill="currentColor"/>
<path d="M19.8914 34.6501C19.7498 34.5076 19.5533 34.4268 19.3529 34.4268C19.1526 34.4268 18.956 34.5076 18.8144 34.6501C18.6728 34.7917 18.5912 34.9875 18.5912 35.1885C18.5912 35.3889 18.6727 35.5854 18.8144 35.7271C18.956 35.8688 19.1526 35.9503 19.3529 35.9503C19.5533 35.9503 19.7498 35.8688 19.8914 35.7271C20.0331 35.5854 20.1146 35.3889 20.1146 35.1885C20.1146 34.9882 20.0332 34.7917 19.8914 34.6501Z" fill="currentColor"/>
<path d="M36.7148 11.2695H34.9121C34.4915 11.2695 34.1504 11.6106 34.1504 12.0313C34.1504 12.4519 34.4915 12.793 34.9121 12.793H36.7148C37.1349 12.793 37.4766 13.1347 37.4766 13.5547V15.9922C37.4766 16.4122 37.1349 16.7539 36.7148 16.7539H2.28516C1.86514 16.7539 1.52344 16.4122 1.52344 15.9922V13.5547C1.52344 13.1347 1.86514 12.793 2.28516 12.793H3.83396C4.25458 12.793 4.59568 12.4519 4.59568 12.0313C4.59568 11.6106 4.25458 11.2695 3.83396 11.2695H2.28516C1.02512 11.2695 0 12.2947 0 13.5547V15.9922C0 17.0852 0.771545 18.0009 1.79842 18.2246L4.52728 32.3556C4.92931 34.4384 6.76086 35.9501 8.88225 35.9501H15.9199C16.3405 35.9501 16.6816 35.609 16.6816 35.1884C16.6816 34.7678 16.3405 34.4267 15.9199 34.4267H8.88217C7.48945 34.4267 6.287 33.4343 6.02299 32.0667L3.3604 18.2783H35.6396L32.977 32.0668C32.713 33.4343 31.5106 34.4267 30.1178 34.4267H22.5623C22.1417 34.4267 21.8006 34.7678 21.8006 35.1884C21.8006 35.609 22.1417 35.9501 22.5623 35.9501H30.1178C32.2392 35.9501 34.0708 34.4384 34.4728 32.3557L37.2016 18.2246C38.2285 18.0009 39 17.0852 39 15.9922V13.5547C39 12.2947 37.9749 11.2695 36.7148 11.2695Z" fill="currentColor"/>
<path d="M32.0997 11.4535L24.3951 3.7487C23.4629 2.81666 21.9459 2.81681 21.0139 3.74885C20.0817 4.68104 20.0817 6.19785 21.0139 7.13019L25.153 11.2694H13.8469L17.9862 7.13012C18.9183 6.19793 18.9183 4.68112 17.9862 3.74877C17.0541 2.81673 15.5373 2.81681 14.6048 3.74877L6.90028 11.4535C5.96809 12.3857 5.96816 13.9025 6.90035 14.8348C7.35198 15.2864 7.95229 15.5351 8.59091 15.5351C9.22954 15.5351 9.82992 15.2864 10.2816 14.8348L12.3235 12.7929H26.5567C26.5944 12.7929 26.6312 12.7892 26.6675 12.784L28.7184 14.8349C29.1701 15.2864 29.7705 15.5351 30.409 15.5351C31.0476 15.5351 31.6481 15.2864 32.0996 14.8348C33.0318 13.9026 33.0319 12.3857 32.0997 11.4535ZM9.20448 13.7575C9.04055 13.9214 8.82263 14.0116 8.59091 14.0116C8.35927 14.0116 8.14142 13.9214 7.97758 13.7575C7.63937 13.4192 7.6393 12.8689 7.9775 12.5307L15.682 4.82615C15.8512 4.65697 16.0734 4.57242 16.2956 4.57242C16.5177 4.57242 16.7399 4.65697 16.909 4.826C17.2472 5.16427 17.2472 5.71469 16.909 6.0529L9.20448 13.7575ZM31.0225 13.7575C30.8587 13.9213 30.6408 14.0116 30.4091 14.0116C30.1774 14.0116 29.9596 13.9213 29.7956 13.7575L22.0912 6.05297C21.7529 5.71469 21.7529 5.16427 22.0912 4.82607C22.2603 4.65697 22.4824 4.57242 22.7046 4.57242C22.9267 4.57242 23.1489 4.65697 23.3181 4.82607L31.0225 12.5307C31.3607 12.8688 31.3607 13.4192 31.0225 13.7575Z" fill="currentColor"/>
</svg>
