<svg width="27" height="27" viewBox="0 0 27 27" fill="none" xmlns="http://www.w3.org/2000/svg">
<path d="M19.6913 0H7.30864C3.27859 0 0 3.27859 0 7.30864V19.6915C0 23.7214 3.27859 26.9999 7.30864 26.9999H19.6915C23.7214 26.9999 26.9999 23.7214 26.9999 19.6915V7.30864C26.9999 3.27859 23.7214 0 19.6913 0V0ZM25.4171 19.6915C25.4171 22.8486 22.8486 25.4171 19.6913 25.4171H7.30864C4.15138 25.4171 1.58285 22.8486 1.58285 19.6915V7.30864C1.58285 4.15138 4.15138 1.58285 7.30864 1.58285H19.6915C22.8486 1.58285 25.4171 4.15138 25.4171 7.30864V19.6915Z" fill="currentColor"/>
<path d="M13.5 6.11719C9.42918 6.11719 6.11743 9.42894 6.11743 13.4998C6.11743 17.5706 9.42918 20.8824 13.5 20.8824C17.5709 20.8824 20.8826 17.5706 20.8826 13.4998C20.8826 9.42894 17.5709 6.11719 13.5 6.11719ZM13.5 19.2995C10.3022 19.2995 7.70028 16.6978 7.70028 13.4998C7.70028 10.3019 10.3022 7.70004 13.5 7.70004C16.6981 7.70004 19.2998 10.3019 19.2998 13.4998C19.2998 16.6978 16.6981 19.2995 13.5 19.2995Z" fill="currentColor"/>
<path d="M21.0592 3.49512C19.8562 3.49512 18.8777 4.47379 18.8777 5.67659C18.8777 6.87959 19.8562 7.85826 21.0592 7.85826C22.2622 7.85826 23.2408 6.87959 23.2408 5.67659C23.2408 4.47359 22.2622 3.49512 21.0592 3.49512ZM21.0592 6.2752C20.7292 6.2752 20.4605 6.00659 20.4605 5.67659C20.4605 5.34638 20.7292 5.07797 21.0592 5.07797C21.3894 5.07797 21.658 5.34638 21.658 5.67659C21.658 6.00659 21.3894 6.2752 21.0592 6.2752Z" fill="currentColor"/>
</svg>
