<svg width="34" height="33" viewBox="0 0 34 33" fill="none" xmlns="http://www.w3.org/2000/svg">
<path d="M28.3333 5.8267V2.75C28.3314 1.232 27.064 0.001925 25.5 0H2.83333C1.26933 0.001925 0.00198333 1.232 0 2.75V14.85C0.00439168 16.2546 1.10132 17.4292 2.54093 17.5717L4.67103 22.9384C5.23373 24.3555 6.87338 25.0614 8.33354 24.516L21.6353 19.5426C20.7162 21.8728 20.9777 24.4868 22.3411 26.602L22.6667 27.1073V32.45C22.6667 32.7539 22.9202 33 23.2333 33H33.4333C33.7464 33 34 32.7539 34 32.45V14.2952C33.9946 12.3932 33.2145 10.5707 31.829 9.22556L28.3333 5.8267ZM28.3333 9.11598L30.0532 13.4492C30.3902 14.2997 29.9534 15.2541 29.0772 15.5815L28.0942 15.95C28.2512 15.6032 28.3325 15.2284 28.3333 14.85V9.11598ZM1.13333 14.85V2.75C1.13333 1.83893 1.89465 1.1 2.83333 1.1H25.5C26.4387 1.1 27.2 1.83893 27.2 2.75V6.2458H27.195L27.2 6.25831V14.85C27.1956 14.946 27.1827 15.0411 27.1615 15.1349L21.9708 10.0963C20.804 8.99002 18.9439 8.9815 17.7667 10.0763C16.5892 11.1717 16.5185 12.9757 17.6075 14.1541L19.8203 16.5H2.83333C1.89465 16.5 1.13333 15.7611 1.13333 14.85ZM8.3929 17.6L4.36333 19.1058L3.7672 17.6H8.3929ZM7.92597 23.4893C7.0499 23.8171 6.06602 23.3932 5.72843 22.5429L4.77247 20.13L11.5368 17.6V17.5967H20.859L21.5955 18.376L7.92597 23.4893ZM32.8667 31.9H23.8V27.5H32.8667V31.9ZM32.8667 26.4H23.5478L23.302 26.0189C21.9204 23.8758 21.8654 21.1689 23.1585 18.975C23.2809 18.7674 23.2509 18.5067 23.0843 18.3304L18.4406 13.4134C17.7481 12.6778 17.7871 11.5405 18.5284 10.8515C19.2701 10.1623 20.4424 10.1736 21.1694 10.8765L30.1994 19.6388L31.0006 18.8612L28.904 16.8261L29.4854 16.6061C30.9443 16.0599 31.6713 14.4698 31.11 13.053L29.192 8.21906L31.0277 10.0045C32.2007 11.1427 32.8621 12.6852 32.8667 14.2952V26.4Z" fill="white"/>
<path d="M6.45994 7.70001C7.27367 7.70001 7.93327 7.05981 7.93327 6.27001V3.63001C7.93327 2.84021 7.27367 2.20001 6.45994 2.20001H3.73994C2.9262 2.20001 2.2666 2.84021 2.2666 3.63001V6.27001C2.2666 7.05981 2.9262 7.70001 3.73994 7.70001H6.45994ZM3.39994 6.27001V5.50001H4.53327V4.40001H3.39994V3.63001C3.39994 3.44783 3.55223 3.30001 3.73994 3.30001H6.45994C6.64765 3.30001 6.79994 3.44783 6.79994 3.63001V4.40001H5.6666V5.50001H6.79994V6.27001C6.79994 6.4522 6.64765 6.60001 6.45994 6.60001H3.73994C3.55223 6.60001 3.39994 6.4522 3.39994 6.27001Z" fill="white"/>
<path d="M2.83325 9.34998H5.09992V10.45H2.83325V9.34998Z" fill="white"/>
<path d="M2.83325 12.65H5.09992V13.75H2.83325V12.65Z" fill="white"/>
<path d="M13.0334 12.65H15.3001V13.75H13.0334V12.65Z" fill="white"/>
<path d="M6.2334 9.34998H8.50006V10.45H6.2334V9.34998Z" fill="white"/>
<path d="M9.6333 9.34998H11.9V10.45H9.6333V9.34998Z" fill="white"/>
<path d="M13.0334 9.34998H15.3001V10.45H13.0334V9.34998Z" fill="white"/>
<path d="M23.8 2.75H24.9334V4.4H23.8V2.75Z" fill="white"/>
<path d="M21.5334 2.75H22.6668V4.4H21.5334V2.75Z" fill="white"/>
<path d="M19.2666 2.75H20.3999V4.4H19.2666V2.75Z" fill="white"/>
<path d="M17 2.75H18.1333V4.4H17V2.75Z" fill="white"/>
<path d="M24.9333 28.6H26.0667V29.7H24.9333V28.6Z" fill="white"/>
</svg>
