<svg width="35" height="37" viewBox="0 0 35 37" fill="none" xmlns="http://www.w3.org/2000/svg">
<g clip-path="url(#clip0)">
<path d="M34.6881 29.7929C34.594 29.6263 34.0121 28.2896 31.2119 25.5422C28.2804 22.6652 28.6742 23.1324 32.2051 18.1578C34.3555 15.1282 35.2153 13.2781 34.9462 12.4871C34.6903 11.7332 33.1086 11.9321 33.1086 11.9321L27.8494 11.9645C27.8494 11.9645 27.46 11.909 27.1691 12.0917C26.8869 12.2721 26.7053 12.6883 26.7053 12.6883C26.7053 12.6883 25.8718 15.0334 24.7605 17.0269C22.4175 21.2337 21.479 21.4557 21.0961 21.1943C20.2057 20.5861 20.4289 18.7475 20.4289 17.4432C20.4289 13.366 21.013 11.6661 19.2891 11.2267C18.7159 11.081 18.2959 10.9839 16.8324 10.9677C14.9553 10.9469 13.3649 10.9746 12.4658 11.4395C11.8664 11.7494 11.4048 12.4409 11.687 12.4802C12.0348 12.5288 12.8224 12.7045 13.2402 13.3058C13.7806 14.0806 13.7609 15.8243 13.7609 15.8243C13.7609 15.8243 14.0715 20.6231 13.0368 21.2198C12.3258 21.6291 11.3523 20.7943 9.26305 16.976C8.19328 15.0218 7.38385 12.8595 7.38385 12.8595C7.38385 12.8595 7.22853 12.4571 6.95069 12.242C6.61379 11.9807 6.14126 11.8974 6.14126 11.8974L1.14026 11.9298C1.14026 11.9298 0.389892 11.9529 0.114247 12.2975C-0.130771 12.6051 0.0945579 13.2388 0.0945579 13.2388C0.0945579 13.2388 4.01047 22.9219 8.44268 27.804C12.5095 32.279 17.1255 31.9853 17.1255 31.9853H19.2169C19.2169 31.9853 19.8492 31.9113 20.1707 31.5436C20.4683 31.2059 20.4573 30.5722 20.4573 30.5722C20.4573 30.5722 20.4158 27.6051 21.7196 27.168C23.0038 26.7378 24.6533 30.0357 26.4012 31.3053C27.7225 32.2651 28.7267 32.0546 28.7267 32.0546L33.4017 31.9853C33.4017 31.9853 35.8475 31.8257 34.6881 29.7929Z" fill="currentColor"/>
</g>
<defs>
<clipPath id="clip0">
<rect width="35" height="37" fill="currentColor"/>
</clipPath>
</defs>
</svg>
