<svg xmlns="http://www.w3.org/2000/svg" xmlns:xlink="http://www.w3.org/1999/xlink"><symbol viewbox="0 0 29 27" fill="none" id="arrow-down-circle" xmlns="http://www.w3.org/2000/svg"><g filter="url(#filter0_d)"><path d="M15.366 17.5a1 1 0 01-1.732 0l-3.897-6.75a1 1 0 01.866-1.5h7.794a1 1 0 01.866 1.5l-3.897 6.75z" fill="#93CA3B"/></g><defs><filter id="filter0_d" x=".601" y=".25" width="27.797" height="26.75" filterunits="userSpaceOnUse" color-interpolation-filters="sRGB"><feflood flood-opacity="0" result="BackgroundImageFix"/><fecolormatrix in="SourceAlpha" type="matrix" values="0 0 0 0 0 0 0 0 0 0 0 0 0 0 0 0 0 0 127 0"/><feoffset/><fegaussianblur stddeviation="4.5"/><fecolormatrix type="matrix" values="0 0 0 0 0 0 0 0 0 0 0 0 0 0 0 0 0 0 0.1 0"/><feblend mode="normal" in2="BackgroundImageFix" result="effect1_dropShadow"/><feblend mode="normal" in="SourceGraphic" in2="effect1_dropShadow" result="shape"/></filter></defs></symbol><symbol viewbox="0 0 39 39" fill="none" id="cart" xmlns="http://www.w3.org/2000/svg"><path d="M11.85 30.607l-1.575-8.809a.761.761 0 10-1.5.269l1.576 8.809a.762.762 0 001.5-.269z" fill="currentColor"/><path d="M22.562 24.148a.762.762 0 00-.762.762v5.832a.762.762 0 001.524 0V24.91a.762.762 0 00-.762-.762z" fill="currentColor"/><path d="M23.1 21.394a.767.767 0 00-.538-.223c-.2 0-.397.081-.538.223a.768.768 0 00-.224.538.767.767 0 00.762.762c.2 0 .397-.081.539-.223a.767.767 0 00.223-.539c0-.2-.082-.396-.223-.538z" fill="currentColor"/><path d="M16.438 21.17a.762.762 0 00-.762.762v8.81a.762.762 0 001.524 0v-8.81a.762.762 0 00-.762-.761z" fill="currentColor"/><path d="M29.609 21.183a.76.76 0 00-.884.615l-1.576 8.81a.762.762 0 101.5.268l1.575-8.81a.762.762 0 00-.615-.883z" fill="currentColor"/><path d="M19.891 34.65a.764.764 0 00-1.077 0 .766.766 0 00-.223.538c0 .2.082.397.223.54a.767.767 0 00.539.222c.2 0 .397-.081.538-.223a.767.767 0 00.224-.538c0-.2-.082-.397-.224-.539z" fill="currentColor"/><path d="M36.715 11.27h-1.803a.762.762 0 000 1.523h1.803c.42 0 .762.342.762.762v2.437c0 .42-.342.762-.762.762H2.285a.763.763 0 01-.762-.762v-2.437c0-.42.342-.762.762-.762h1.549a.762.762 0 000-1.523H2.285A2.288 2.288 0 000 13.555v2.437c0 1.093.772 2.009 1.798 2.233l2.73 14.13a4.442 4.442 0 004.354 3.595h7.038a.762.762 0 000-1.523H8.882a2.916 2.916 0 01-2.859-2.36L3.36 18.278h32.28l-2.663 13.789a2.916 2.916 0 01-2.86 2.36h-7.555a.762.762 0 000 1.523h7.556a4.442 4.442 0 004.355-3.594l2.729-14.131A2.289 2.289 0 0039 15.992v-2.437a2.288 2.288 0 00-2.285-2.285z" fill="currentColor"/><path d="M32.1 11.454l-7.705-7.705a2.394 2.394 0 00-3.381 0 2.394 2.394 0 000 3.381l4.139 4.14H13.847l4.14-4.14a2.394 2.394 0 000-3.381 2.394 2.394 0 00-3.382 0L6.9 11.453a2.394 2.394 0 000 3.382c.452.451 1.052.7 1.69.7.64 0 1.24-.249 1.692-.7l2.041-2.042h14.234a.779.779 0 00.11-.009l2.051 2.05c.452.452 1.052.701 1.691.701s1.24-.249 1.69-.7a2.394 2.394 0 000-3.382zM9.204 13.756a.862.862 0 01-.613.255.869.869 0 01-.613-1.48l7.704-7.706a.865.865 0 011.227 0 .869.869 0 010 1.227l-7.705 7.705zm21.819 0a.862.862 0 01-.614.255.863.863 0 01-.613-.255L22.09 6.054a.868.868 0 011.227-1.227l7.704 7.705a.869.869 0 010 1.226z" fill="currentColor"/></symbol><symbol viewbox="0 0 15 13" fill="none" id="checked" xmlns="http://www.w3.org/2000/svg"><path d="M14.832.98a.6.6 0 00-.864 0l-9.775 9.775L1.017 7.58a.6.6 0 00-.849.848l3.6 3.6a.6.6 0 00.849 0l10.2-10.2a.6.6 0 00.015-.848z" fill="currentColor"/></symbol><symbol viewbox="0 0 28 27" fill="none" id="fb" xmlns="http://www.w3.org/2000/svg"><g clip-path="url(#clip0)"><path d="M18.663 4.483h2.556V.19C20.78.132 19.262 0 17.495 0c-3.685 0-6.21 2.235-6.21 6.344v3.781H7.218v4.8h4.067V27h4.986V14.925h3.903l.62-4.799H16.27V6.82c.002-1.387.389-2.337 2.393-2.337z" fill="currentColor"/></g><defs><clippath id="clip0"><path fill="currentColor" d="M0 0h28v27H0z"/></clippath></defs></symbol><symbol viewbox="0 0 12 20" fill="none" id="hero-next" xmlns="http://www.w3.org/2000/svg"><path d="M2.413.213L.826 1.799 9.04 10 .838 18.212 2.424 19.8l8.988-9a1.125 1.125 0 000-1.586l-9-9z" fill="currentColor"/></symbol><symbol viewbox="0 0 12 20" fill="none" id="hero-prev" xmlns="http://www.w3.org/2000/svg"><path d="M9.588 19.788l1.586-1.587L2.96 10l8.201-8.213L9.576.201l-8.988 9a1.125 1.125 0 000 1.586l9 9z" fill="currentColor"/></symbol><symbol viewbox="0 0 27 27" fill="none" id="insta" xmlns="http://www.w3.org/2000/svg"><path d="M19.691 0H7.31C3.279 0 0 3.279 0 7.309v12.383C0 23.722 3.279 27 7.309 27h12.383C23.722 27 27 23.72 27 19.692V7.309C27 3.279 23.72 0 19.69 0zm5.726 19.692a5.732 5.732 0 01-5.726 5.725H7.31a5.732 5.732 0 01-5.726-5.726V7.31a5.732 5.732 0 015.726-5.726h12.383a5.732 5.732 0 015.725 5.726v12.383z" fill="currentColor"/><path d="M13.5 6.117c-4.07 0-7.383 3.312-7.383 7.383 0 4.07 3.312 7.382 7.383 7.382 4.07 0 7.383-3.311 7.383-7.382S17.57 6.117 13.5 6.117zm0 13.182a5.806 5.806 0 01-5.8-5.8c0-3.197 2.602-5.799 5.8-5.799s5.8 2.602 5.8 5.8-2.602 5.8-5.8 5.8z" fill="currentColor"/><path d="M21.06 3.495a2.184 2.184 0 00-2.182 2.182c0 1.203.978 2.181 2.181 2.181a2.184 2.184 0 002.182-2.181 2.184 2.184 0 00-2.182-2.182zm0 2.78a.6.6 0 110-1.199.6.6 0 010 1.2z" fill="currentColor"/></symbol><symbol viewbox="0 0 34 33" fill="none" id="popup-delivery-hand" xmlns="http://www.w3.org/2000/svg"><path d="M28.333 5.827V2.75C28.331 1.232 27.064.002 25.5 0H2.833C1.27.002.002 1.232 0 2.75v12.1c.004 1.405 1.101 2.58 2.54 2.722l2.131 5.366c.563 1.418 2.202 2.123 3.663 1.578l13.301-4.973a7.748 7.748 0 00.706 7.059l.326.505v5.343c0 .304.253.55.566.55h10.2a.558.558 0 00.567-.55V14.295a7.093 7.093 0 00-2.171-5.07l-3.496-3.398zm0 3.289l1.72 4.333c.337.85-.1 1.805-.976 2.133l-.983.368a2.68 2.68 0 00.24-1.1V9.116zm-27.2 5.734V2.75c0-.911.762-1.65 1.7-1.65H25.5c.939 0 1.7.739 1.7 1.65v3.496h-.005l.005.012v8.592a1.63 1.63 0 01-.038.285l-5.191-5.039a3.09 3.09 0 00-4.204-.02 2.873 2.873 0 00-.16 4.078L19.82 16.5H2.833c-.938 0-1.7-.739-1.7-1.65zm7.26 2.75l-4.03 1.506-.596-1.506h4.626zm-.467 5.89c-.876.327-1.86-.097-2.198-.947l-.956-2.413 6.765-2.53v-.003h9.322l.736.779-13.669 5.113zm24.94 8.41H23.8v-4.4h9.067v4.4zm0-5.5h-9.318l-.246-.381a6.686 6.686 0 01-.143-7.044.537.537 0 00-.075-.645l-4.643-4.917a1.796 1.796 0 01.087-2.562 1.931 1.931 0 012.641.025l9.03 8.763.802-.778-2.097-2.035.581-.22c1.46-.546 2.186-2.136 1.625-3.553l-1.918-4.834 1.836 1.786a6.002 6.002 0 011.839 4.29V26.4z" fill="#fff"/><path d="M6.46 7.7c.814 0 1.473-.64 1.473-1.43V3.63c0-.79-.66-1.43-1.473-1.43H3.74c-.814 0-1.473.64-1.473 1.43v2.64c0 .79.66 1.43 1.473 1.43h2.72zM3.4 6.27V5.5h1.133V4.4H3.4v-.77c0-.182.152-.33.34-.33h2.72c.188 0 .34.148.34.33v.77H5.667v1.1H6.8v.77c0 .182-.152.33-.34.33H3.74a.335.335 0 01-.34-.33z" fill="#fff"/><path d="M2.833 9.35H5.1v1.1H2.833v-1.1z" fill="#fff"/><path d="M2.833 12.65H5.1v1.1H2.833v-1.1z" fill="#fff"/><path d="M13.033 12.65H15.3v1.1h-2.267v-1.1z" fill="#fff"/><path d="M6.233 9.35H8.5v1.1H6.233v-1.1z" fill="#fff"/><path d="M9.633 9.35H11.9v1.1H9.633v-1.1z" fill="#fff"/><path d="M13.033 9.35H15.3v1.1h-2.267v-1.1z" fill="#fff"/><path d="M23.8 2.75h1.133V4.4H23.8V2.75z" fill="#fff"/><path d="M21.533 2.75h1.134V4.4h-1.134V2.75z" fill="#fff"/><path d="M19.267 2.75H20.4V4.4h-1.133V2.75z" fill="#fff"/><path d="M17 2.75h1.133V4.4H17V2.75z" fill="#fff"/><path d="M24.933 28.6h1.134v1.1h-1.134v-1.1z" fill="#fff"/></symbol><symbol viewbox="0 0 35 37" fill="none" id="vk" xmlns="http://www.w3.org/2000/svg"><g clip-path="url(#clip0)"><path d="M34.688 29.793c-.094-.167-.676-1.503-3.476-4.25-2.932-2.878-2.538-2.41.993-7.385 2.15-3.03 3.01-4.88 2.741-5.67-.256-.755-1.837-.556-1.837-.556l-5.26.032s-.389-.055-.68.128c-.282.18-.464.596-.464.596s-.833 2.345-1.944 4.339c-2.343 4.207-3.282 4.429-3.665 4.167-.89-.608-.667-2.447-.667-3.75 0-4.078.584-5.778-1.14-6.217-.573-.146-.993-.243-2.457-.26-1.877-.02-3.467.008-4.366.473-.6.31-1.061 1-.779 1.04.348.049 1.135.224 1.553.826.54.775.52 2.518.52 2.518s.312 4.8-.723 5.396c-.711.41-1.685-.426-3.774-4.244-1.07-1.954-1.88-4.116-1.88-4.116s-.154-.403-.432-.618c-.337-.261-.81-.345-.81-.345l-5 .033s-.751.023-1.027.367c-.245.308-.02.942-.02.942s3.916 9.683 8.349 14.565c4.066 4.475 8.682 4.181 8.682 4.181h2.092s.632-.074.954-.441c.297-.338.286-.972.286-.972s-.041-2.967 1.263-3.404c1.284-.43 2.933 2.868 4.681 4.137 1.322.96 2.326.75 2.326.75l4.675-.07s2.445-.16 1.286-2.192z" fill="currentColor"/></g><defs><clippath id="clip0"><path fill="currentColor" d="M0 0h35v37H0z"/></clippath></defs></symbol></svg>